<?xml version="1.0" ?><!DOCTYPE svg  PUBLIC '-//W3C//DTD SVG 1.1//EN'  'http://www.w3.org/Graphics/SVG/1.1/DTD/svg11.dtd'><svg height="128px" id="Layer_1" style="enable-background:new 0 0 128 128;" version="1.1" viewBox="0 0 128 128" width="128px" xml:space="preserve" xmlns="http://www.w3.org/2000/svg" xmlns:xlink="http://www.w3.org/1999/xlink"><style type="text/css"><![CDATA[.st0{fill-rule:evenodd;clip-rule:evenodd;}svg { cursor: pointer;transition: 200ms;transition-timing-function: ease-in-out;-webkit-transition: 200ms;-webkit-transition-timing-function: ease-in-out;fill:#000;}svg:hover { fill: #d34836;}]]></style><g><path d="M79.254,9.939H50.854c-3.764,0-7.801,0.438-12.111,1.315c-4.35,1.024-8.544,3.189-12.58,6.512   c-5.883,5.68-8.82,12.004-8.82,18.979c0,5.769,2.075,10.824,6.229,15.17c3.964,4.661,9.726,7.04,17.288,7.135   c1.424,0,2.946-0.095,4.559-0.278c-0.265,0.748-0.556,1.551-0.867,2.439c-0.355,0.831-0.532,1.882-0.532,3.135   c0,2.083,0.463,3.874,1.399,5.361c0.8,1.53,1.713,2.969,2.739,4.317c-3.316,0.088-7.476,0.507-12.489,1.241   c-5.064,0.878-9.896,2.633-14.491,5.255c-4.099,2.443-6.929,5.281-8.486,8.502c-1.618,3.226-2.42,6.161-2.42,8.785   c0,5.394,2.479,10.023,7.425,13.899c4.907,4.142,12.332,6.264,22.279,6.353c11.882-0.182,20.978-3.018,27.273-8.517   c6.077-5.317,9.119-11.41,9.119-18.292c-0.094-4.845-1.2-8.769-3.325-11.775c-2.256-2.957-4.881-5.646-7.873-8.099l-4.819-3.948   c-0.694-0.693-1.415-1.503-2.148-2.426c-0.87-0.969-1.303-2.188-1.303-3.677c0-1.522,0.425-2.859,1.269-4.013   c0.72-1.112,1.499-2.103,2.349-2.979c1.478-1.292,2.872-2.567,4.184-3.808c1.186-1.25,2.308-2.611,3.361-4.088   c2.162-3.051,3.286-7.112,3.366-12.192c0-2.77-0.312-5.197-0.935-7.274c-0.761-2.08-1.632-3.876-2.613-5.403   c-1.027-1.611-2.071-2.977-3.141-4.085c-1.113-1.064-2.113-1.871-3.009-2.425h8.755L79.254,9.939z M63.691,87.382   c2.346,2.677,3.521,5.812,3.521,9.419c0,4.438-1.718,8.061-5.156,10.882c-3.522,2.863-8.632,4.339-15.324,4.435   c-7.463-0.096-13.339-1.757-17.638-4.988c-4.52-3.233-6.773-7.346-6.773-12.336c0-2.538,0.512-4.708,1.557-6.509   c0.899-1.712,2.008-3.144,3.32-4.297c1.359-1.106,2.692-1.964,4.002-2.564c1.312-0.553,2.326-0.971,3.05-1.246   c3.075-0.925,6.084-1.595,9.023-2.011c2.982-0.276,4.837-0.365,5.56-0.276c1.217,0,2.28,0.043,3.188,0.139   C57.314,81.728,61.201,84.843,63.691,87.382z M59.078,45.595c-0.342,1.897-1.113,3.749-2.318,5.552   c-2.489,2.546-5.604,3.892-9.343,4.03c-2.961,0-5.59-0.902-7.888-2.71c-2.307-1.804-4.181-4.001-5.638-6.592   c-3.005-5.556-4.505-10.896-4.505-16.029c-0.097-3.888,0.933-7.405,3.084-10.549c2.553-3.01,5.75-4.561,9.599-4.654   c2.908,0.093,5.481,0.954,7.719,2.566c2.192,1.71,3.961,3.937,5.306,6.664c2.863,5.686,4.296,11.337,4.296,16.931   C59.39,42.104,59.283,43.696,59.078,45.595z"/><polygon points="102.828,25.451 102.828,10.546 95.608,10.546 95.608,25.451 80.709,25.451 80.709,32.669 95.608,32.669    95.608,47.568 102.828,47.568 102.828,32.669 117.727,32.669 117.727,25.451  "/></g></svg>